HIERARCHY
ROOT Hips
{
  OFFSET -187.679 86.5976 -156.378
  CHANNELS 6 Xposition Yposition Zposition Zrotation Xrotation Yrotation
  JOINT LeftUpLeg
  {
    OFFSET 8.64259 1.95398 -2.38835
    CHANNELS 3 Zrotation Xrotation Yrotation
    JOINT LeftLeg
    {
      OFFSET 43.7702 0 0
      CHANNELS 3 Zrotation Xrotation Yrotation
      JOINT LeftFoot
      {
        OFFSET 40.6238 0 0
        CHANNELS 3 Zrotation Xrotation Yrotation
        JOINT LeftToeBase
        {
          OFFSET 12.7242 0 0
          CHANNELS 3 Zrotation Xrotation Yrotation
          End Site
          {
            OFFSET 0 0 0
          }
        }
      }
    }
  }
  JOINT RightUpLeg
  {
    OFFSET -8.2249 1.95398 -2.59336
    CHANNELS 3 Zrotation Xrotation Yrotation
    JOINT RightLeg
    {
      OFFSET 43.5653 0 0
      CHANNELS 3 Zrotation Xrotation Yrotation
      JOINT RightFoot
      {
        OFFSET 40.6238 0 0
        CHANNELS 3 Zrotation Xrotation Yrotation
        JOINT RightToeBase
        {
          OFFSET 12.7242 0 0
          CHANNELS 3 Zrotation Xrotation Yrotation
          End Site
          {
            OFFSET 0 0 0
          }
        }
      }
    }
  }
  JOINT Spine
  {
    OFFSET 0.165834 0.87714 6.61349
    CHANNELS 3 Zrotation Xrotation Yrotation
    JOINT Spine1
    {
      OFFSET 7.38963 1.71661e-005 0
      CHANNELS 3 Zrotation Xrotation Yrotation
      JOINT Spine2
      {
        OFFSET 11.9445 1.14441e-005 0
        CHANNELS 3 Zrotation Xrotation Yrotation
        JOINT Spine3
        {
          OFFSET 14.7254 4.19617e-005 0
          CHANNELS 3 Zrotation Xrotation Yrotation
          JOINT Spine4
          {
            OFFSET 10.9679 0 0
            CHANNELS 3 Zrotation Xrotation Yrotation
            JOINT RightShoulder
            {
              OFFSET 2.46616 -1.6653 3.69651
              CHANNELS 3 Zrotation Xrotation Yrotation
              JOINT RightArm
              {
                OFFSET 13.0012 0 0
                CHANNELS 3 Zrotation Xrotation Yrotation
                JOINT RightForeArm
                {
                  OFFSET 28.7848 1.52588e-005 0
                  CHANNELS 3 Zrotation Xrotation Yrotation
                  JOINT RightHand
                  {
                    OFFSET 26.5688 1.52588e-005 0
                    CHANNELS 3 Zrotation Xrotation Yrotation
                    End Site
                    {
                      OFFSET 0 0 0
                    }
                  }
                }
              }
            }
            JOINT LeftShoulder
            {
              OFFSET 2.38034 -1.29275 -3.7523
              CHANNELS 3 Zrotation Xrotation Yrotation
              JOINT LeftArm
              {
                OFFSET 16.3182 6.10352e-005 0
                CHANNELS 3 Zrotation Xrotation Yrotation
                JOINT LeftForeArm
                {
                  OFFSET 27.0901 0 0
                  CHANNELS 3 Zrotation Xrotation Yrotation
                  JOINT LeftHand
                  {
                    OFFSET 24.5451 1.52588e-005 0
                    CHANNELS 3 Zrotation Xrotation Yrotation
                    End Site
                    {
                      OFFSET 0 0 0
                    }
                  }
                }
              }
            }
            JOINT Neck
            {
              OFFSET 5.0226 -0.0266342 0
              CHANNELS 3 Zrotation Xrotation Yrotation
              JOINT Head
              {
                OFFSET 6.69363 2.86102e-005 0
                CHANNELS 3 Zrotation Xrotation Yrotation
                End Site
                {
                  OFFSET 0 0 0
                }
              }
            }
          }
        }
      }
    }
  }
}
MOTION
Frames:	18
Frame Time:	0.0416667
25.4623 101.811 24.6628 -141.17 -81.2843 -142.531 -175.635 -3.52605 87.4115 -17.1089 10.1646 7.50035 71.5085 4.91903 -2.10715 14.1822 -7.71279 3.74367 172.742 -2.87018 87.0908 -16.7291 4.53532 1.62901 67.1617 -3.07862 2.17789 24.3158 -2.0389 4.07453 0.380656 7.45278 -89.7361 11.9724 0.881255 0.430607 0.301723 0.899358 0.391393 -22.2346 0.711104 0.675559 -2.22191 0.711103 0.675549 87.7554 -48.3536 -104.496 28.1263 -28.9598 -13.7029 -15.1305 -18.3543 -16.1793 -9.10496 -0.0947242 -3.98827 -89.2387 -46.1478 79.2765 -25.8405 29.8176 -10.1942 7.1227 -8.38899 -11.3137 -1.52798 -0.0918487 -4.34322 3.47182 -0.391807 -3.67057 8.66698 0.0301013 -2.0955 
25.4578 101.744 24.6392 -140.844 -81.196 -142.176 -175.553 -3.31362 87.4894 -17.5951 10.049 7.42041 71.7351 4.96497 -2.07647 14.3259 -7.63022 3.7132 172.581 -3.05274 86.9798 -16.2132 4.47729 1.78322 67.2686 -3.27338 2.14851 24.37 -2.21409 4.63068 0.372069 7.44624 -89.7332 11.9796 0.865623 0.438182 0.308843 0.884074 0.399659 -22.2273 0.693908 0.678084 -2.21468 0.693916 0.678085 87.6532 -48.5556 -104.597 28.0526 -28.8392 -13.6675 -15.4556 -19.1915 -16.6478 -9.75542 -0.0858684 -4.16003 -89.2452 -45.9947 79.2324 -26.0861 29.7147 -10.1638 7.30697 -7.90393 -11.6341 -1.85774 -0.092483 -4.19824 3.34376 -0.413006 -3.75909 8.52067 0.0358705 -1.96331 
25.4358 101.746 24.6875 -141.14 -81.1074 -142.583 -175.569 -3.64907 87.4136 -17.2068 10.0609 7.41578 71.7828 4.90277 -2.52149 14.2322 -8.01719 4.39895 172.354 -3.05472 86.7601 -16.5153 4.09929 1.89214 67.0432 -3.16101 2.48694 24.7579 -1.81206 3.65022 0.340529 7.45063 -89.7145 11.9708 0.811721 0.481405 0.300069 0.832126 0.44521 -22.2357 0.629514 0.703111 -2.22307 0.629517 0.703107 87.5591 -48.4867 -104.762 28.2947 -28.5951 -13.4898 -15.2839 -18.8952 -16.2859 -10.291 -0.161269 -3.32831 -89.1344 -46.0096 79.409 -26.3007 29.4154 -10.135 7.35307 -7.90823 -11.5255 -1.59268 -0.0926189 -4.30822 3.41058 -0.815224 -4.332 8.58732 -0.242656 -1.79369 
25.3436 101.79 24.74 -140.847 -81.236 -142.223 -175.509 -3.71453 87.5687 -16.8555 10.0938 7.40545 71.7295 4.90088 -2.57856 14.0827 -8.02464 4.27274 172.329 -2.84048 86.8752 -16.9562 4.03935 1.99623 67.4563 -3.22149 2.05251 24.0098 -2.08339 4.02609 0.333607 7.43437 -89.7091 12.0033 0.800574 0.493257 0.33255 0.821507 0.457544 -22.2032 0.615317 0.711061 -2.19049 0.615315 0.71105 87.7471 -48.4102 -104.493 28.6184 -28.6195 -13.3231 -15.254 -19.6916 -16.1982 -10.5835 -0.159216 -3.38199 -89.3228 -46.0972 79.134 -26.2064 29.6479 -9.92252 7.20043 -8.43353 -11.5876 -1.91355 -0.0923386 -4.45276 3.57506 -2.68316 -6.05779 9.27979 -1.73377 -1.32943 
25.2884 101.774 24.8119 -140.68 -81.2154 -142.053 -175.462 -3.67893 87.612 -17.0438 10.1257 7.38202 71.7579 4.94371 -2.3711 14.1272 -7.78388 3.83435 172.405 -3.03348 86.9725 -16.7255 4.21032 1.9501 67.6451 -3.31392 1.89059 23.7082 -2.23924 4.31143 0.343987 7.44353 -89.6903 11.9848 0.830064 0.52773 0.314016 0.852492 0.490674 -22.2216 0.633091 0.752798 -2.209 0.633094 0.7528 87.7392 -48.4919 -104.482 28.423 -28.7778 -13.028 -15.2181 -18.3853 -16.4093 -9.61963 -0.0648962 -4.41998 -89.2212 -45.9813 79.2672 -25.9227 30.4349 -9.84192 6.93927 -8.95712 -11.9559 -1.80263 -0.0917426 -4.27425 3.83843 -6.74211 -8.64625 9.79999 -5.15809 -0.487408 
25.2749 101.736 24.859 -140.944 -81.4312 -142.313 -175.568 -3.33168 87.5583 -17.485 10.0321 7.49385 71.909 4.96573 -2.37217 14.1326 -7.78143 3.83457 172.54 -3.00496 86.9985 -16.3093 4.78985 1.88916 67.1192 -3.23922 2.47784 24.9459 -2.03853 4.45313 0.307615 7.43374 -89.6488 12.0041 0.777319 0.615991 0.333221 0.803682 0.581168 -22.2019 0.55626 0.82112 -2.1892 0.556263 0.82112 87.147 -48.8455 -105.293 28.1624 -28.6585 -12.7292 -15.2429 -17.9503 -16.4616 -9.298 -0.08061 -4.19648 -89.1931 -45.9493 79.3039 -25.8413 30.0129 -9.65129 6.99987 -9.00084 -11.642 -1.54533 -0.0907849 -4.60321 2.81328 -12.6643 -13.0511 12.1068 -10.1025 1.31639 
25.2318 101.732 24.9863 -141.983 -81.4911 -143.27 -175.504 -3.47898 87.7074 -17.4396 10.2308 7.52128 72.0654 4.99777 -2.61597 14.1383 -7.82783 3.93288 172.483 -3.17502 87.0929 -16.4464 4.56365 2.00036 67.3677 -3.27287 2.09003 24.3228 -2.04056 4.08286 0.281246 7.46357 -89.6563 11.9446 0.721261 0.607601 0.273695 0.747302 0.575257 -22.2612 0.505313 0.79627 -2.24858 0.505308 0.796263 87.4792 -48.1636 -104.978 28.7941 -28.6673 -12.8841 -15.2913 -18.4924 -16.4845 -9.50391 -0.0901775 -4.08729 -89.152 -46.2706 79.4387 -25.6077 30.1253 -9.60979 6.95192 -9.05258 -11.8081 -0.749904 -0.0896188 -4.38762 2.03733 -19.4878 -17.3009 13.9999 -16.0219 2.87204 
25.2093 101.772 25.0879 -140.696 -81.4768 -141.986 -175.568 -3.60553 87.6339 -17.1375 10.156 7.60488 71.9553 4.96824 -2.50332 13.7014 -8.13787 4.13863 172.517 -3.07459 87.1417 -16.6691 4.52195 1.95935 67.5012 -3.28111 2.07326 24.0155 -2.12737 4.16067 0.288655 7.4842 -89.6457 11.9031 0.740845 0.626987 0.232191 0.767726 0.593765 -22.3027 0.51817 0.82065 -2.29006 0.518171 0.820647 87.6249 -48.3467 -104.7 28.2654 -29.1109 -13.2136 -15.2079 -18.6143 -16.4754 -9.56904 -0.139371 -3.46761 -89.3067 -45.7033 79.0711 -26.4714 29.6998 -9.11772 7.08921 -8.82106 -12.0065 -0.336298 -0.0801555 -3.82382 0.801462 -25.4968 -23.068 16.4516 -20.7273 6.34826 
25.2099 101.744 25.2094 -139.743 -81.8217 -140.931 -175.51 -3.11138 87.7541 -17.488 10.3525 7.54933 71.8931 4.96246 -2.14028 14.1351 -7.72867 3.73135 172.63 -3.13207 87.2523 -15.7904 4.847 2.00837 66.9586 -3.24692 2.39705 24.7487 -2.0052 4.23144 0.224295 7.48485 -89.709 11.9059 0.583137 0.517609 0.235002 0.605347 0.491434 -22.2999 0.400612 0.668924 -2.28725 0.400618 0.66893 87.3822 -48.448 -105.046 27.2075 -29.4586 -13.6782 -15.013 -17.8394 -16.3108 -9.36895 -0.111342 -3.79899 -88.9366 -45.3439 79.5738 -26.9644 30.196 -9.32563 6.9789 -8.81416 -11.8338 -0.513736 -0.0820968 -3.90045 0.9416 -29.6535 -26.8378 17.0032 -23.8678 9.17464 
25.2018 101.752 25.3127 -138.041 -81.8145 -139.253 -175.517 -3.24073 87.7191 -17.0981 10.1258 7.53003 71.9136 4.91012 -2.30139 14.0253 -7.79885 3.76908 172.713 -3.06757 87.2871 -15.7039 4.74984 1.90621 67.1907 -3.32199 2.26328 24.4581 -2.1421 4.47008 0.193168 7.4808 -89.7466 11.911 0.503479 0.451111 0.240097 0.522849 0.428513 -22.2949 0.344632 0.581574 -2.28221 0.344631 0.58157 87.4426 -48.1595 -105.036 27.2358 -29.5342 -13.7183 -15.1436 -17.9598 -16.5524 -9.71116 -0.101169 -3.96879 -88.8474 -45.3506 79.7158 -27.1864 29.8077 -9.03916 7.24557 -7.99582 -12.1753 -0.102781 -0.0768642 -3.65843 2.26051 -32.4035 -28.2904 15.7687 -26.0384 10.4849 
25.2196 101.755 25.3751 -137.36 -81.9803 -138.507 -175.518 -3.08535 87.7706 -17.0627 10.1666 7.53146 71.8195 4.84319 -2.34819 14.2429 -7.83404 4.04355 172.737 -3.02229 87.3466 -15.5251 4.83365 1.96379 66.8619 -3.23313 2.53237 24.7023 -1.95229 4.04292 0.197733 7.48831 -89.7776 11.8964 0.497979 0.39005 0.225475 0.514662 0.367758 -22.3097 0.357729 0.521684 -2.29703 0.357726 0.521684 87.5663 -48.1076 -104.859 27.126 -29.4375 -14.0858 -15.0767 -18.6871 -16.2352 -9.95552 -0.125377 -3.70105 -88.7155 -44.8347 79.8125 -26.768 31.5187 -9.37489 6.64881 -9.43438 -12.9963 -0.541941 -0.0661786 -2.92014 2.79254 -33.7657 -30.6147 16.1428 -26.7687 11.445 
25.2677 101.739 25.4848 -136.559 -82.1376 -137.653 -175.599 -3.04986 87.7325 -16.9282 10.1332 7.63362 72.0472 4.93362 -2.39104 13.8569 -8.11959 4.24807 172.823 -2.93621 87.4344 -15.448 4.86645 1.93515 66.7941 -3.20947 2.43039 24.8383 -1.91941 4.02391 0.201811 7.4687 -89.7928 11.9356 0.49893 0.359295 0.264735 0.514265 0.336984 -22.2705 0.367874 0.492633 -2.25784 0.367892 0.492641 87.293 -48.0798 -105.291 27.2325 -29.1483 -13.6343 -15.4331 -18.8126 -16.7063 -9.67425 -0.147333 -3.39151 -88.7322 -44.5611 79.7262 -26.6615 31.3977 -9.66532 6.73003 -9.25093 -13.2931 0.366255 -0.0404965 -2.26684 2.20946 -34.6878 -32.6833 16.4423 -27.4942 11.7346 
25.3478 101.746 25.5921 -137.438 -82.4527 -138.671 -175.83 -2.9533 87.4402 -16.8903 10.2125 7.81483 71.7568 4.83471 -2.34693 14.5175 -7.83468 4.30538 172.567 -2.73317 87.1521 -15.6638 4.76811 2.10189 67.0225 -3.24281 2.30586 24.7668 -1.9503 4.07519 0.178561 7.47486 -89.7693 11.9232 0.463842 0.410227 0.252239 0.481441 0.389405 -22.2828 0.319105 0.530662 -2.27012 0.319105 0.530661 87.148 -48.4256 -105.414 26.6103 -29.672 -13.7075 -15.3264 -18.7343 -16.9253 -11.5534 -0.102667 -4.11197 -88.657 -44.1083 79.7471 -26.7907 31.2754 -10.2709 6.83423 -9.07775 -13.2813 0.0871919 -0.0479306 -2.38005 1.79051 -35.4606 -34.7409 17.3098 -27.8793 12.6225 
25.2269 101.749 25.69 -137.32 -82.7197 -138.377 -175.449 -2.4887 87.9473 -17.4518 10.7755 7.47867 71.9925 4.95981 -2.14262 14.2478 -7.71424 3.80809 172.868 -2.96711 87.5675 -15.0237 5.25483 2.02911 66.8662 -3.29349 2.03828 24.6959 -2.09044 4.45852 0.154539 7.45977 -89.8152 11.9537 0.394438 0.325994 0.282794 0.408407 0.308316 -22.2523 0.278231 0.429467 -2.23966 0.278229 0.429466 87.403 -47.9988 -105.144 26.9686 -29.4082 -13.9541 -15.4575 -18.7524 -16.8913 -9.02422 -0.124397 -3.59189 -88.5057 -44.4084 80.0541 -26.713 31.6118 -10.2691 6.71579 -9.62065 -13.8166 -0.233266 -0.0586837 -2.68185 2.37475 -35.7915 -34.3586 16.2985 -28.3475 11.7955 
25.2619 101.758 25.9265 -138.336 -82.2745 -139.29 -175.292 -3.1887 88.0573 -17.2399 10.7347 7.45715 72.0121 4.97637 -2.10956 14.3401 -7.66722 3.80071 172.735 -3.52928 87.4776 -15.0355 5.03259 2.0477 66.8901 -3.30548 2.25737 24.7436 -2.05487 4.37938 0.197745 7.5145 -89.8333 11.8443 0.471735 0.282105 0.173399 0.483699 0.261062 -22.362 0.365148 0.410842 -2.34932 0.365147 0.410836 87.5292 -47.9183 -104.971 26.9634 -29.4131 -14.4982 -15.0459 -18.8246 -16.0971 -9.10202 -0.0720408 -4.29746 -88.5718 -44.5438 79.9778 -26.5524 31.9343 -10.4706 6.50254 -10.1816 -13.3582 -0.00495442 -0.0557303 -2.68972 2.58916 -35.8519 -34.0294 15.5308 -28.5874 11.0497 
25.2597 101.768 26.1185 -141.978 -82.4472 -142.871 -175.314 -3.46173 88.0848 -17.2606 11.3957 7.64674 71.9635 5.06183 -1.85734 14.3725 -7.85033 4.19881 172.639 -4.07986 87.5142 -14.8601 5.57131 2.19077 67.3222 -3.43482 2.22227 24.1437 -2.06895 4.06338 0.168976 7.53595 -89.8495 11.8015 0.406821 0.256846 0.130539 0.417736 0.238693 -22.4047 0.310825 0.367247 -2.39209 0.310819 0.367231 87.6911 -47.7447 -104.769 27.1614 -29.568 -14.3584 -14.7641 -17.1629 -16.1038 -11.5872 -0.0605501 -4.54703 -88.8885 -44.9034 79.5534 -26.5118 32.0025 -10.0314 6.53445 -10.0422 -13.584 -0.66724 -0.0670265 -2.90167 2.56939 -35.8733 -34.1057 15.4032 -28.6171 11.0522 
25.203 101.812 26.2122 -142.584 -82.6846 -143.354 -175.179 -3.26574 88.3492 -17.3795 11.6131 7.57707 71.9433 4.98064 -2.06939 14.468 -7.79267 4.17383 173.053 -3.99432 87.9074 -14.912 5.90927 1.93636 66.9158 -3.255 2.0845 24.533 -1.95701 3.95626 0.170084 7.52621 -89.8611 11.821 0.403628 0.234063 0.150047 0.413537 0.216073 -22.3853 0.31462 0.344548 -2.37262 0.31462 0.344552 87.546 -47.9035 -104.949 27.1406 -29.365 -14.256 -15.1409 -18.3121 -16.3156 -10.1113 -0.0797766 -4.2661 -88.8134 -44.7233 79.6329 -26.8756 31.9975 -9.75642 6.4404 -10.0375 -13.713 -0.750986 -0.0657856 -2.70743 2.76921 -35.9228 -34.0637 15.0231 -28.6526 11.0667 
25.1127 101.745 26.3139 -142.659 -82.949 -143.219 -174.923 -2.73252 88.778 -18.0977 11.8463 7.39265 72.2972 5.06735 -1.98641 14.3143 -7.62116 3.68414 173.234 -4.31352 88.1994 -13.9228 6.5533 2.03857 66.7402 -3.41462 2.33657 24.7621 -2.07028 4.437 0.207938 7.52101 -89.8798 11.8315 0.470125 0.189517 0.160628 0.478011 0.16863 -22.3749 0.39143 0.322044 -2.36227 0.391427 0.322034 87.8478 -47.749 -104.525 27.209 -29.7957 -14.247 -15.2017 -18.5566 -16.6274 -9.3197 -0.10371 -3.89533 -88.6961 -44.4956 79.7691 -26.8778 31.8861 -10.1147 6.53517 -9.69256 -13.3519 -0.428567 -0.0576923 -2.47725 2.53033 -35.9586 -34.2744 15.3412 -28.7494 10.7014 
